<svg width="12" height="12" viewBox="0 0 12 12" fill="none" xmlns="http://www.w3.org/2000/svg">
<path d="M6 12C9.31371 12 12 9.3137 12 5.99999C12 2.68628 9.31371 0 6 0C2.68629 0 0 2.68628 0 5.99999C0 9.3137 2.68629 12 6 12Z" fill="#878787"/>
<path d="M5.85704 6.44898C5.32643 6 5.5305 5.63265 4.63254 5.63265C3.73458 5.63265 2.95906 5.2449 3.0611 4.81633C3.16314 4.38776 4.32642 4.73469 4.57132 4.93878C4.81621 5.14286 4.95908 4.91836 4.95908 4.91836C4.95908 4.40816 5.9999 4.20409 5.85704 2.91837C5.79582 2.2449 5.5305 1.48979 5.30601 0.897949C2.95907 1.22448 1.10193 3.12245 0.877441 5.5102C1.51009 6.53061 2.20398 6.16326 3.02031 6.36734C3.97949 6.61224 3.89786 6.57143 3.40807 7.83673C2.91827 9.12245 4.30602 9.79592 4.9999 10.2653C5.34684 10.5102 5.48968 10.8367 5.5509 11.102C5.69376 11.102 5.83663 11.102 5.97949 11.102C6.38765 11.102 6.7958 11.0612 7.18356 10.9592C7.34683 10.4694 7.46929 9.85714 7.55092 9.57143C7.67337 9.04081 7.95909 8.28572 7.55092 7.57143C7.14276 6.85715 6.38765 6.87756 5.85704 6.42858V6.44898Z" fill="white"/>
</svg>
