<svg width="32" height="32" viewBox="0 0 32 32" fill="none" xmlns="http://www.w3.org/2000/svg">
<circle cx="16" cy="16" r="15" stroke="#84868A" stroke-width="2"/>
<path d="M18.9375 15.8973C19.9679 15.8973 20.8042 16.7818 20.8042 17.8717V21.5383H20.7999V22.6665H11.1999V19.2819H11.2021V17.8717C11.2021 16.7818 12.0373 15.8973 13.0687 15.8973H18.9375ZM26.6666 17.8717C26.6666 17.348 26.4699 16.8459 26.1199 16.4756C25.7698 16.1053 25.295 15.8973 24.7999 15.8973H21.1999C21.6191 16.4332 21.8709 17.1214 21.8709 17.8717V19.2819H21.8666V22.6665H25.8666C26.0788 22.6665 26.2822 22.5774 26.4323 22.4187C26.5823 22.26 26.6666 22.0448 26.6666 21.8204V17.8717ZM10.1333 21.5383H10.1354V17.8717L10.145 17.6235C10.191 16.9895 10.4221 16.3863 10.8063 15.8973H7.19992L7.04632 15.9041C6.57944 15.9449 6.14412 16.1698 5.82678 16.5343C5.50943 16.8988 5.33327 17.3762 5.33325 17.8717V21.8204C5.33325 22.2875 5.69165 22.6665 6.13325 22.6665H10.1333V21.5383ZM15.9999 7.99988C16.8486 7.99988 17.6625 8.35647 18.2627 8.99121C18.8628 9.62595 19.1999 10.4868 19.1999 11.3845C19.1999 12.2821 18.8628 13.143 18.2627 13.7778C17.6625 14.4125 16.8486 14.7691 15.9999 14.7691C15.1512 14.7691 14.3373 14.4125 13.7372 13.7778C13.1371 13.143 12.7999 12.2821 12.7999 11.3845C12.7999 10.4868 13.1371 9.62595 13.7372 8.99121C14.3373 8.35647 15.1512 7.99988 15.9999 7.99988ZM22.9333 9.12808C23.6405 9.12808 24.3188 9.42524 24.8189 9.95419C25.319 10.4831 25.5999 11.2005 25.5999 11.9486C25.5999 12.6966 25.319 13.4141 24.8189 13.943C24.3188 14.4719 23.6405 14.7691 22.9333 14.7691C22.226 14.7691 21.5477 14.4719 21.0476 13.943C20.5475 13.4141 20.2666 12.6966 20.2666 11.9486C20.2666 11.2005 20.5475 10.4831 21.0476 9.95419C21.5477 9.42524 22.226 9.12808 22.9333 9.12808ZM9.06659 9.12808C9.77383 9.12808 10.4521 9.42524 10.9522 9.95419C11.4523 10.4831 11.7333 11.2005 11.7333 11.9486C11.7333 12.6966 11.4523 13.4141 10.9522 13.943C10.4521 14.4719 9.77383 14.7691 9.06659 14.7691C8.35934 14.7691 7.68106 14.4719 7.18097 13.943C6.68087 13.4141 6.39992 12.6966 6.39992 11.9486C6.39992 11.2005 6.68087 10.4831 7.18097 9.95419C7.68106 9.42524 8.35934 9.12808 9.06659 9.12808Z" fill="#84868A"/>
</svg>
