<svg width="17" height="16" viewBox="0 0 17 16" fill="none" xmlns="http://www.w3.org/2000/svg">
<path d="M8.0008 0C12.4196 0 16.0016 3.58204 16.0016 8.0008C16.0016 12.4188 12.4196 16 8.0008 16C3.58204 16.0008 0 12.4188 0 8.0008C0 3.58204 3.58204 0 8.0008 0ZM8.0008 1.19988C7.10154 1.19013 6.20927 1.35882 5.37564 1.69621C4.54201 2.03359 3.78357 2.53296 3.14421 3.16542C2.50486 3.79787 1.9973 4.55085 1.65089 5.38077C1.30449 6.2107 1.12612 7.10108 1.12612 8.0004C1.12612 8.89972 1.30449 9.7901 1.65089 10.62C1.9973 11.4499 2.50486 12.2029 3.14421 12.8354C3.78357 13.4678 4.54201 13.9672 5.37564 14.3046C6.20927 14.642 7.10154 14.8107 8.0008 14.8009C9.79163 14.7815 11.5025 14.0565 12.762 12.7832C14.0215 11.51 14.728 9.79134 14.728 8.0004C14.728 6.20946 14.0215 4.49081 12.762 3.21757C11.5025 1.94434 9.79163 1.2193 8.0008 1.19988V1.19988ZM5.17068 10.227C5.50737 10.6556 5.93713 11.0019 6.42745 11.2399C6.91777 11.4778 7.45579 11.6011 8.0008 11.6004C8.54521 11.6011 9.08266 11.478 9.57253 11.2405C10.0624 11.003 10.4919 10.6572 10.8285 10.2294C10.8774 10.1676 10.9379 10.116 11.0067 10.0775C11.0755 10.0391 11.1512 10.0146 11.2294 10.0054C11.3077 9.99628 11.387 10.0026 11.4628 10.0241C11.5386 10.0455 11.6094 10.0817 11.6712 10.1306C11.7331 10.1794 11.7846 10.24 11.8231 10.3088C11.8615 10.3776 11.886 10.4532 11.8952 10.5315C11.9043 10.6097 11.898 10.689 11.8765 10.7648C11.8551 10.8406 11.8189 10.9115 11.77 10.9733C11.3211 11.5433 10.7485 12.0039 10.0956 12.3204C9.44266 12.6369 8.72639 12.801 8.0008 12.8003C7.27428 12.8009 6.55713 12.6363 5.90358 12.319C5.25003 12.0016 4.67719 11.5398 4.22838 10.9685C4.17753 10.9068 4.13951 10.8357 4.11655 10.7591C4.09359 10.6826 4.08616 10.6022 4.09469 10.5227C4.10322 10.4433 4.12754 10.3663 4.16622 10.2964C4.2049 10.2265 4.25717 10.165 4.31995 10.1155C4.38272 10.066 4.45475 10.0296 4.53179 10.0084C4.60884 9.98716 4.68935 9.98153 4.7686 9.99184C4.84785 10.0022 4.92424 10.0282 4.99329 10.0684C5.06234 10.1087 5.12265 10.1623 5.17068 10.2262V10.227ZM5.60104 5.40106C5.73467 5.39728 5.86771 5.42033 5.99228 5.46886C6.11685 5.51739 6.23042 5.59041 6.32628 5.68359C6.42214 5.77678 6.49834 5.88824 6.55038 6.01139C6.60241 6.13454 6.62922 6.26687 6.62922 6.40056C6.62922 6.53425 6.60241 6.66658 6.55038 6.78973C6.49834 6.91288 6.42214 7.02434 6.32628 7.11752C6.23042 7.21071 6.11685 7.28373 5.99228 7.33226C5.86771 7.38078 5.73467 7.40384 5.60104 7.40006C5.34085 7.3927 5.09379 7.28417 4.91235 7.09753C4.73092 6.91089 4.62942 6.66085 4.62942 6.40056C4.62942 6.14027 4.73092 5.89023 4.91235 5.70359C5.09379 5.51695 5.34085 5.40842 5.60104 5.40106ZM10.4006 5.40106C10.5342 5.39728 10.6672 5.42033 10.7918 5.46886C10.9164 5.51739 11.0299 5.59041 11.1258 5.68359C11.2217 5.77678 11.2979 5.88824 11.3499 6.01139C11.4019 6.13454 11.4287 6.26687 11.4287 6.40056C11.4287 6.53425 11.4019 6.66658 11.3499 6.78973C11.2979 6.91288 11.2217 7.02434 11.1258 7.11752C11.0299 7.21071 10.9164 7.28373 10.7918 7.33226C10.6672 7.38078 10.5342 7.40384 10.4006 7.40006C10.1404 7.3927 9.89331 7.28417 9.71187 7.09753C9.53044 6.91089 9.42894 6.66085 9.42894 6.40056C9.42894 6.14027 9.53044 5.89023 9.71187 5.70359C9.89331 5.51695 10.1404 5.40842 10.4006 5.40106V5.40106Z" fill="#828282"/>
</svg>
