<svg width="33" height="32" viewBox="0 0 33 32" fill="none" xmlns="http://www.w3.org/2000/svg">
<path d="M32.6497 15.2904L17.6501 0.290786C17.4627 0.104539 17.2093 0 16.9451 0C16.6809 0 16.4275 0.104539 16.2401 0.290786L1.24045 15.2904C1.07663 15.4817 0.991025 15.7278 1.00075 15.9795C1.01047 16.2311 1.1148 16.4699 1.29289 16.648C1.47098 16.8261 1.70971 16.9304 1.96138 16.9401C2.21305 16.9498 2.45912 16.8642 2.65042 16.7004L16.9401 2.41074L31.2298 16.7104C31.4211 16.8742 31.6671 16.9598 31.9188 16.9501C32.1705 16.9404 32.4092 16.8361 32.5873 16.658C32.7654 16.4799 32.8697 16.2411 32.8794 15.9895C32.8892 15.7378 32.8036 15.4917 32.6397 15.3004L32.6497 15.2904Z" fill="#84868A"/>
<path d="M26.9398 29.9064H21.9399V19.4387H11.9401V29.9064H6.94026V15.0799L4.94031 16.9045V29.9064C4.94031 30.4617 5.15102 30.9942 5.52608 31.3868C5.90114 31.7794 6.40984 32 6.94026 32H13.9401V21.5322H19.94V32H26.9398C27.4702 32 27.9789 31.7794 28.354 31.3868C28.729 30.9942 28.9398 30.4617 28.9398 29.9064V16.9081L26.9398 15.0004V29.9064Z" fill="#84868A"/>
<path d="M2.04089 15.0237C1.28979 15.0237 0.680894 15.6326 0.680894 16.3837C0.680894 17.1348 1.28979 17.7437 2.04089 17.7437V15.0237ZM5.61081 17.7437H6.97081V15.0237H5.61081V17.7437ZM2.04089 17.7437H5.61081V15.0237H2.04089V17.7437Z" fill="#84868A"/>
<path d="M28.271 14.6405L26.911 14.6405L26.911 17.3605L28.271 17.3605L28.271 14.6405ZM31.5365 17.3605C32.2876 17.3605 32.8965 16.7516 32.8965 16.0005C32.8965 15.2494 32.2876 14.6405 31.5365 14.6405L31.5365 17.3605ZM28.271 17.3605L31.5365 17.3605L31.5365 14.6405L28.271 14.6405L28.271 17.3605Z" fill="#84868A"/>
</svg>
