<svg width="19" height="20" viewBox="0 0 19 20" fill="none" xmlns="http://www.w3.org/2000/svg">
<path d="M4.7301 9.47217H1.51276C1.23124 9.47217 1 9.68345 1 9.94504V18.5272C1 18.7888 1.23124 19.0001 1.51276 19.0001H4.7301C5.01161 19.0001 5.24286 18.7888 5.24286 18.5272V9.94504C5.24286 9.68345 5.01161 9.47217 4.7301 9.47217Z" stroke="#606060" stroke-width="0.785" stroke-linecap="round" stroke-linejoin="round"/>
<path d="M17.5688 12.7421C17.5688 12.1686 17.2169 11.6655 16.7142 11.4442C17.4079 11.3536 17.9508 10.76 17.9508 10.0457C17.9508 9.271 17.3174 8.63716 16.5432 8.63716H11.4156C11.4156 8.63716 12.3104 7.10785 12.6322 4.99502C12.9539 2.88219 12.4009 1.19193 11.0738 1.00077C11.0738 1.00077 9.19364 0.869975 9.5757 4.0191C9.5757 4.0191 7.28335 7.22861 5.25241 9.86462V17.2092C5.25241 17.2092 5.19208 18.6781 6.7002 18.7586C6.74042 18.7586 6.79069 18.7586 6.83091 18.7586H15.9903C16.6237 18.7586 17.1465 18.2354 17.1465 17.6016C17.1465 16.9677 16.6237 16.4445 15.9903 16.4445H16.2014C16.8348 16.4445 17.3576 15.9214 17.3576 15.2875C17.3576 14.6537 16.8348 14.1305 16.2014 14.1305H16.1511C16.9253 14.1305 17.5587 13.4967 17.5587 12.722L17.5688 12.7421Z" stroke="#606060" stroke-width="0.785" stroke-linecap="round" stroke-linejoin="round"/>
</svg>
