<svg width="20" height="16" viewBox="0 0 20 16" fill="none" xmlns="http://www.w3.org/2000/svg">
<path d="M2.1875 0C1.60734 0 1.05094 0.210714 0.640704 0.585786C0.230468 0.960859 0 1.46957 0 2L0 14C0 15.104 0.98 16 2.1875 16H17.8125C18.3927 16 18.9491 15.7893 19.3593 15.4142C19.7695 15.0391 20 14.5304 20 14V4.28571C20 3.75528 19.7695 3.24657 19.3593 2.8715C18.9491 2.49643 18.3927 2.28571 17.8125 2.28571H9.375C9.32649 2.28571 9.27864 2.27539 9.23525 2.25555C9.19185 2.23571 9.15411 2.20691 9.125 2.17143L8 0.8C7.5875 0.297143 6.9375 0 6.25 0H2.1875Z" fill="#8C939D"/>
<path d="M8 1C8.16667 0.833333 8.6 0.5 9 0.5C9.4 0.5 11.8333 0.5 13 0.5C13.3333 0.5 14 0.7 14 1.5V2.5" stroke="#8C939D"/>
<path d="M14 1C14 0.833333 14.2 0.5 15 0.5C15.8 0.5 18 0.5 18.5 0.5C18.56 0.5 19.5 0.8 19.5 2V4" stroke="#8C939D"/>
</svg>
