<svg width="37" height="32" viewBox="0 0 37 32" fill="none" xmlns="http://www.w3.org/2000/svg">
<path d="M29.7143 29.7143H16V20.5714H13.7143V29.7143H6.85713V20.5714H4.57141V29.7143C4.57141 30.3205 4.81223 30.9019 5.24088 31.3305C5.66954 31.7592 6.25092 32 6.85713 32H29.7143C30.3205 32 30.9019 31.7592 31.3305 31.3305C31.7592 30.9019 32 30.3205 32 29.7143V20.5714H29.7143V29.7143Z" fill="#84868A"/>
<path d="M36.3314 10.5943L31.6686 1.26857C31.4794 0.887757 31.1876 0.567281 30.8263 0.343177C30.4649 0.119072 30.0481 0.000225648 29.6229 0H6.94859C6.52335 0.000225648 6.10661 0.119072 5.74521 0.343177C5.38382 0.567281 5.09211 0.887757 4.90287 1.26857L0.240018 10.5943C0.0808133 10.9137 -0.00138093 11.266 1.75509e-05 11.6229V15.1429C-0.00102591 15.6769 0.184975 16.1945 0.525732 16.6057C1.02934 17.183 1.65133 17.6451 2.34943 17.9606C3.04752 18.2762 3.80536 18.4377 4.57145 18.4343C5.82147 18.4362 7.03337 18.004 8.00002 17.2114C8.96666 18.0044 10.1783 18.4378 11.4286 18.4378C12.6789 18.4378 13.8905 18.0044 14.8572 17.2114C15.8238 18.0044 17.0354 18.4378 18.2857 18.4378C19.536 18.4378 20.7477 18.0044 21.7143 17.2114C22.6809 18.0044 23.8926 18.4378 25.1429 18.4378C26.3932 18.4378 27.6048 18.0044 28.5714 17.2114C29.6505 18.0974 31.031 18.5305 32.4228 18.4197C33.8145 18.3088 35.1091 17.6627 36.0343 16.6171C36.3792 16.2075 36.5693 15.6898 36.5714 15.1543V11.6229C36.5728 11.266 36.4907 10.9137 36.3314 10.5943ZM32 16.1486C31.5119 16.1474 31.0311 16.0296 30.5977 15.805C30.1643 15.5803 29.7909 15.2554 29.5086 14.8571L28.5714 13.5771L27.6457 14.8571C27.3581 15.2493 26.9821 15.5681 26.5482 15.7879C26.1144 16.0077 25.6349 16.1222 25.1486 16.1222C24.6623 16.1222 24.1828 16.0077 23.7489 15.7879C23.3151 15.5681 22.9391 15.2493 22.6514 14.8571L21.7143 13.5771L20.7886 14.8571C20.5009 15.2493 20.1249 15.5681 19.6911 15.7879C19.2573 16.0077 18.7778 16.1222 18.2914 16.1222C17.8051 16.1222 17.3256 16.0077 16.8918 15.7879C16.458 15.5681 16.082 15.2493 15.7943 14.8571L14.8572 13.5771L13.9314 14.8571C13.6438 15.2493 13.2678 15.5681 12.834 15.7879C12.4001 16.0077 11.9206 16.1222 11.4343 16.1222C10.948 16.1222 10.4685 16.0077 10.0347 15.7879C9.60082 15.5681 9.22484 15.2493 8.93716 14.8571L8.00002 13.5771L7.06288 14.8571C6.78056 15.2554 6.40714 15.5803 5.97376 15.805C5.54038 16.0296 5.05959 16.1474 4.57145 16.1486C4.14074 16.1538 3.71391 16.0668 3.31966 15.8933C2.9254 15.7198 2.57286 15.4639 2.28573 15.1429V11.6229L6.94859 2.28571H29.6229L34.2857 11.6114V15.1086C34.0003 15.4342 33.6489 15.6953 33.2548 15.8746C32.8607 16.0539 32.433 16.1473 32 16.1486V16.1486Z" fill="#84868A"/>
<rect x="4.57141" y="17.1428" width="2.28571" height="3.42857" fill="#84868A"/>
<rect x="29.7142" y="17.1428" width="2.28571" height="3.42857" fill="#84868A"/>
<rect x="20.5714" y="20.5714" width="2.28571" height="9.14286" fill="#84868A"/>
<rect x="13.7142" y="20.5714" width="9.14286" height="2.28571" fill="#84868A"/>
<rect x="1.14282" y="10.2858" width="34.2857" height="2.28571" fill="#84868A"/>
</svg>
