<svg width="31" height="32" viewBox="0 0 31 32" fill="none" xmlns="http://www.w3.org/2000/svg">
<path d="M11.4286 9.72952V17.7006C11.4286 18.5691 12.3581 19.1192 13.12 18.7032L20.413 14.717C20.5929 14.6185 20.743 14.4735 20.8476 14.2971C20.9522 14.1207 21.0074 13.9194 21.0074 13.7143C21.0074 13.5092 20.9522 13.3079 20.8476 13.1315C20.743 12.9551 20.5929 12.81 20.413 12.7116L13.12 8.72533C12.9458 8.63004 12.7499 8.58176 12.5514 8.58524C12.3529 8.58873 12.1587 8.64386 11.988 8.74521C11.8173 8.84656 11.6759 8.99063 11.5778 9.16323C11.4797 9.33582 11.4283 9.531 11.4286 9.72952V9.72952ZM4.95238 0C3.63893 0 2.37927 0.521767 1.45052 1.45052C0.521767 2.37927 0 3.63893 0 4.95238V22.4762C0 23.7896 0.521767 25.0493 1.45052 25.9781C2.37927 26.9068 3.63893 27.4286 4.95238 27.4286H25.5238C26.1742 27.4286 26.8182 27.3005 27.419 27.0516C28.0199 26.8027 28.5658 26.4379 29.0257 25.9781C29.4855 25.5182 29.8503 24.9722 30.0992 24.3714C30.3481 23.7705 30.4762 23.1265 30.4762 22.4762V4.95238C30.4762 4.30203 30.3481 3.65804 30.0992 3.05719C29.8503 2.45634 29.4855 1.91039 29.0257 1.45052C28.5658 0.990648 28.0199 0.625858 27.419 0.376977C26.8182 0.128097 26.1742 0 25.5238 0H4.95238ZM2.28571 4.95238C2.28571 3.48038 3.48038 2.28571 4.95238 2.28571H25.5238C26.9958 2.28571 28.1905 3.48038 28.1905 4.95238V22.4762C28.1905 23.1834 27.9095 23.8617 27.4094 24.3618C26.9093 24.8619 26.2311 25.1429 25.5238 25.1429H4.95238C4.24514 25.1429 3.56686 24.8619 3.06676 24.3618C2.56667 23.8617 2.28571 23.1834 2.28571 22.4762V4.95238Z" fill="#84868A"/>
<line x1="8.29938" y1="31.3199" x2="22.1775" y2="31.3199" stroke="#84868A" stroke-width="1.36" stroke-linecap="round"/>
</svg>
