<svg width="24" height="24" viewBox="0 0 24 24" fill="none" xmlns="http://www.w3.org/2000/svg">
<path d="M17.5881 15.4778H16.4767L16.0827 15.0979C16.962 14.0765 17.6046 12.8733 17.9645 11.5745C18.3245 10.2758 18.3929 8.91346 18.1649 7.58515C17.5037 3.674 14.2397 0.550711 10.3004 0.0723698C8.91552 -0.102836 7.50888 0.041097 6.18814 0.493154C4.86741 0.945211 3.66759 1.69341 2.6805 2.6805C1.69341 3.66759 0.945211 4.86741 0.493154 6.18814C0.041097 7.50888 -0.102836 8.91552 0.0723698 10.3004C0.550711 14.2397 3.674 17.5037 7.58515 18.1649C8.91346 18.3929 10.2758 18.3245 11.5745 17.9645C12.8733 17.6046 14.0765 16.962 15.0979 16.0827L15.4778 16.4767V17.5881L21.4571 23.5674C22.0339 24.1442 22.9765 24.1442 23.5533 23.5674C24.1301 22.9906 24.1301 22.0479 23.5533 21.4711L17.5881 15.4778ZM9.14679 15.4778C5.64364 15.4778 2.8158 12.6499 2.8158 9.14679C2.8158 5.64364 5.64364 2.8158 9.14679 2.8158C12.6499 2.8158 15.4778 5.64364 15.4778 9.14679C15.4778 12.6499 12.6499 15.4778 9.14679 15.4778Z" fill="black"/>
</svg>
