<svg width="23" height="23" viewBox="0 0 23 23" fill="none" xmlns="http://www.w3.org/2000/svg">
<path d="M14.9953 0.548949C8.94975 -1.38624 2.46913 1.95908 0.548949 8.00466C-1.38624 14.0502 1.95909 20.5309 8.00466 22.4511C14.0502 24.3862 20.5309 21.0409 22.4511 14.9953C24.3862 8.94976 21.0409 2.46913 14.9953 0.548949Z" fill="#2F80ED"/>
<path d="M7.58465 10.1797H5.24442C5.03729 10.1797 4.86938 10.3476 4.86938 10.5547V17.2603C4.86938 17.4675 5.03729 17.6354 5.24442 17.6354H7.58465C7.79177 17.6354 7.95968 17.4675 7.95968 17.2603V10.5547C7.95968 10.3476 7.79177 10.1797 7.58465 10.1797Z" fill="white"/>
<path d="M17.7259 12.55C17.7259 12.13 17.4708 11.7699 17.1108 11.6049C17.6208 11.5449 18.0109 11.1099 18.0109 10.5848C18.0109 10.0148 17.5458 9.54974 16.9758 9.54974H13.2404C13.2404 9.54974 13.8855 8.43966 14.1255 6.89451C14.3655 5.34937 13.9605 4.11925 12.9854 3.98424C12.9854 3.98424 11.6053 3.89423 11.8903 6.18945C11.8903 6.18945 10.2251 8.52966 8.74001 10.4498V15.8053C8.74001 15.8053 8.695 16.8704 9.7901 16.9304C9.8201 16.9304 9.85011 16.9304 9.88011 16.9304H16.5557C17.0208 16.9304 17.3958 16.5554 17.3958 16.0904C17.3958 15.6253 17.0208 15.2503 16.5557 15.2503H16.7058C17.1708 15.2503 17.5458 14.8753 17.5458 14.4102C17.5458 13.9452 17.1708 13.5701 16.7058 13.5701H16.6758C17.2458 13.5701 17.7109 13.1051 17.7109 12.535L17.7259 12.55Z" fill="white"/>
</svg>
