<svg width="20" height="20" viewBox="0 0 20 20" fill="none" xmlns="http://www.w3.org/2000/svg">
<path d="M9 19.5H8.5H7.5H6H2C1.46957 19.5 0.960859 19.3156 0.585786 18.9874C0.210714 18.6592 0 18.2141 0 17.75V7.25C0 6.78587 0.210714 6.34075 0.585786 6.01256C0.960859 5.68437 1.46957 5.5 2 5.5H18C18.5304 5.5 19.0391 5.68437 19.4142 6.01256C19.7893 6.34075 20 6.78587 20 7.25V17.75C20 18.2141 19.7893 18.6592 19.4142 18.9874C19.0391 19.3156 18.5304 19.5 18 19.5H11.9H11C10.5 19.5 9.75 19.5 9.5 19.5H9ZM8 16.875L16 9.875L14.59 8.6325L8 14.3988L5.41 12.1413L4 13.375L8 16.875Z" fill="#8C939D"/>
<path d="M2 6C2 5.16667 2.5 3.5 4.5 3.5C6.5 3.5 13 3.5 16 3.5C16.6667 3.5 18 3.8 18 5C18 6.2 18 6.16667 18 6" stroke="#8C939D" stroke-width="2"/>
<path d="M4.00003 3.5C3.83336 2.66667 4.00003 1 6.00003 1C8.00003 1 12.8333 1 15 1C15.5 1 16.5 1.3 16.5 2.5C16.5 3.7 16.5 3.66667 16.5 3.5" stroke="#8C939D" stroke-width="2"/>
</svg>
