<svg width="28" height="25" viewBox="0 0 28 25" fill="none" xmlns="http://www.w3.org/2000/svg">
<path d="M0 25H2.77778C3.54167 25 4.16667 24.375 4.16667 23.6111V11.1111C4.16667 10.3472 3.54167 9.72222 2.77778 9.72222H0V25ZM27.5417 15.1111C27.6944 14.7639 27.7778 14.3889 27.7778 14V12.5C27.7778 10.9722 26.5278 9.72222 25 9.72222H17.3611L18.6389 3.26389C18.7083 2.95833 18.6667 2.625 18.5278 2.34722C18.2083 1.72222 17.8056 1.15278 17.3056 0.652778L16.6667 0L7.76389 8.90278C7.23611 9.43055 6.94444 10.1389 6.94444 10.875V21.7639C6.94444 23.5417 8.40278 25 10.1944 25H21.4583C22.4306 25 23.3472 24.4861 23.8472 23.6528L27.5417 15.1111Z" fill="#2F80ED"/>
</svg>
