<svg width="18" height="19" viewBox="0 0 18 19" fill="none" xmlns="http://www.w3.org/2000/svg">
<path d="M4.52287 9.00146H1.48427C1.2184 9.00146 1 9.20101 1 9.44807V17.5534C1 17.8005 1.2184 18 1.48427 18H4.52287C4.78874 18 5.00714 17.8005 5.00714 17.5534V9.44807C5.00714 9.20101 4.78874 9.00146 4.52287 9.00146Z" stroke="#606060" stroke-width="0.785" stroke-linecap="round" stroke-linejoin="round"/>
<path d="M16.6483 12.0897C16.6483 11.5481 16.3159 11.073 15.8412 10.864C16.4964 10.7784 17.0091 10.2178 17.0091 9.54317C17.0091 8.8115 16.4109 8.21288 15.6797 8.21288H10.837C10.837 8.21288 11.6821 6.76853 11.986 4.77308C12.2898 2.77763 11.7676 1.18127 10.5141 1.00073C10.5141 1.00073 8.73846 0.877199 9.09929 3.85137C9.09929 3.85137 6.93429 6.88258 5.01618 9.37214V16.3087C5.01618 16.3087 4.95921 17.696 6.38355 17.772C6.42153 17.772 6.46901 17.772 6.50699 17.772H15.1575C15.7557 17.772 16.2495 17.2779 16.2495 16.6793C16.2495 16.0806 15.7557 15.5865 15.1575 15.5865H15.3569C15.9551 15.5865 16.4489 15.0924 16.4489 14.4938C16.4489 13.8951 15.9551 13.401 15.3569 13.401H15.3094C16.0406 13.401 16.6388 12.8024 16.6388 12.0707L16.6483 12.0897Z" stroke="#606060" stroke-width="0.785" stroke-linecap="round" stroke-linejoin="round"/>
</svg>
