<svg width="17" height="13" viewBox="0 0 17 13" fill="none" xmlns="http://www.w3.org/2000/svg">
<path d="M1.25049 10.355C1.25049 10.6202 1.35585 10.8746 1.54338 11.0621C1.73092 11.2496 1.98527 11.355 2.25049 11.355H14.2505C14.5157 11.355 14.7701 11.2496 14.9576 11.0621C15.1451 10.8746 15.2505 10.6202 15.2505 10.355V4.35498C15.2505 4.08976 15.1451 3.83541 14.9576 3.64787C14.7701 3.46034 14.5157 3.35498 14.2505 3.35498H13.0785C12.2833 3.35455 11.5207 3.03838 10.9585 2.47598L10.1285 1.64798C9.94149 1.46092 9.68799 1.35557 9.42349 1.35498H7.07949C6.81429 1.35504 6.55998 1.46043 6.37249 1.64798L5.54449 2.47598C5.26586 2.75469 4.93504 2.97578 4.57094 3.1266C4.20684 3.27742 3.81659 3.35503 3.42249 3.35498H2.25049C1.98527 3.35498 1.73092 3.46034 1.54338 3.64787C1.35585 3.83541 1.25049 4.08976 1.25049 4.35498V10.355ZM14.2505 2.35498C14.7809 2.35498 15.2896 2.56569 15.6647 2.94077C16.0398 3.31584 16.2505 3.82455 16.2505 4.35498V10.355C16.2505 10.8854 16.0398 11.3941 15.6647 11.7692C15.2896 12.1443 14.7809 12.355 14.2505 12.355H2.25049C1.72006 12.355 1.21135 12.1443 0.836275 11.7692C0.461202 11.3941 0.250488 10.8854 0.250488 10.355V4.35498C0.250488 3.82455 0.461202 3.31584 0.836275 2.94077C1.21135 2.56569 1.72006 2.35498 2.25049 2.35498H3.42249C3.95288 2.35487 4.4615 2.14408 4.83649 1.76898L5.66449 0.94098C6.03947 0.565882 6.5481 0.355094 7.07849 0.35498H9.42249C9.95288 0.355094 10.4615 0.565882 10.8365 0.94098L11.6645 1.76898C12.0395 2.14408 12.5481 2.35487 13.0785 2.35498H14.2505Z" fill="#828282"/>
<path d="M8.25049 9.35498C8.91353 9.35498 9.54941 9.09159 10.0183 8.62275C10.4871 8.15391 10.7505 7.51802 10.7505 6.85498C10.7505 6.19194 10.4871 5.55605 10.0183 5.08721C9.54941 4.61837 8.91353 4.35498 8.25049 4.35498C7.58745 4.35498 6.95156 4.61837 6.48272 5.08721C6.01388 5.55605 5.75049 6.19194 5.75049 6.85498C5.75049 7.51802 6.01388 8.15391 6.48272 8.62275C6.95156 9.09159 7.58745 9.35498 8.25049 9.35498ZM8.25049 10.355C7.32223 10.355 6.43199 9.98623 5.77561 9.32985C5.11924 8.67348 4.75049 7.78324 4.75049 6.85498C4.75049 5.92672 5.11924 5.03648 5.77561 4.38011C6.43199 3.72373 7.32223 3.35498 8.25049 3.35498C9.17875 3.35498 10.069 3.72373 10.7254 4.38011C11.3817 5.03648 11.7505 5.92672 11.7505 6.85498C11.7505 7.78324 11.3817 8.67348 10.7254 9.32985C10.069 9.98623 9.17875 10.355 8.25049 10.355V10.355ZM13.2505 4.85498C13.2505 4.98759 13.3032 5.11477 13.3969 5.20853C13.4907 5.3023 13.6179 5.35498 13.7505 5.35498C13.8831 5.35498 14.0103 5.3023 14.104 5.20853C14.1978 5.11477 14.2505 4.98759 14.2505 4.85498C14.2505 4.72237 14.1978 4.5952 14.104 4.50143C14.0103 4.40766 13.8831 4.35498 13.7505 4.35498C13.6179 4.35498 13.4907 4.40766 13.3969 4.50143C13.3032 4.5952 13.2505 4.72237 13.2505 4.85498V4.85498Z" fill="#828282"/>
</svg>
