<svg width="17" height="15" viewBox="0 0 17 15" fill="none" xmlns="http://www.w3.org/2000/svg">
<path d="M4.73096 5.94835C5.28067 5.89121 5.70581 5.99064 5.85781 6.06607C5.92517 6.10239 5.99914 6.12481 6.07533 6.13201C6.15152 6.1392 6.22837 6.13102 6.30134 6.10794C6.3743 6.08487 6.44189 6.04737 6.50009 5.99768C6.55829 5.94798 6.60591 5.88711 6.64014 5.81866C6.67436 5.75021 6.69449 5.67559 6.69932 5.59921C6.70416 5.52284 6.6936 5.44627 6.66828 5.37405C6.64296 5.30183 6.6034 5.23544 6.55193 5.1788C6.50046 5.12217 6.43814 5.07645 6.36867 5.04435C5.96753 4.84321 5.3081 4.73921 4.6121 4.81235C3.51495 4.92664 2.38581 5.87978 2.38581 7.4375C2.38581 9.02035 3.59038 10.0661 5.01438 10.0661C5.67724 10.0661 6.27153 9.75521 6.61096 9.43407C6.91038 9.15064 6.95724 8.77464 6.95724 8.53921V7.4375C6.95724 7.28594 6.89704 7.1406 6.78987 7.03344C6.68271 6.92627 6.53736 6.86607 6.38581 6.86607H5.46353C5.31197 6.86607 5.16663 6.92627 5.05947 7.03344C4.9523 7.1406 4.8921 7.28594 4.8921 7.4375C4.8921 7.58905 4.9523 7.73439 5.05947 7.84156C5.16663 7.94872 5.31197 8.00892 5.46353 8.00892H5.81438V8.53921C5.81436 8.5664 5.81207 8.59354 5.80753 8.62035C5.58502 8.80812 5.30541 8.91489 5.01438 8.92321C4.17896 8.92321 3.52867 8.34607 3.52867 7.4375C3.52867 6.50264 4.17667 6.00664 4.73096 5.94835ZM9.24296 5.3815C9.24296 5.22994 9.18275 5.0846 9.07559 4.97744C8.96842 4.87027 8.82308 4.81007 8.67153 4.81007C8.51997 4.81007 8.37463 4.87027 8.26747 4.97744C8.1603 5.0846 8.1001 5.22994 8.1001 5.3815V9.49578C8.1001 9.64733 8.1603 9.79268 8.26747 9.89984C8.37463 10.007 8.51997 10.0672 8.67153 10.0672C8.82308 10.0672 8.96842 10.007 9.07559 9.89984C9.18275 9.79268 9.24296 9.64733 9.24296 9.49578V5.3815V5.3815ZM10.9572 4.81007C10.8057 4.81007 10.6603 4.87027 10.5532 4.97744C10.446 5.0846 10.3858 5.22994 10.3858 5.3815V9.49578C10.3858 9.64733 10.446 9.79268 10.5532 9.89984C10.6603 10.007 10.8057 10.0672 10.9572 10.0672C11.1088 10.0672 11.2541 10.007 11.3613 9.89984C11.4685 9.79268 11.5287 9.64733 11.5287 9.49578V8.0055L12.675 7.99864C12.8265 7.99773 12.9715 7.93665 13.078 7.82885C13.1845 7.72104 13.2439 7.57533 13.243 7.42378C13.242 7.27223 13.181 7.12725 13.0732 7.02073C12.9654 6.9142 12.8197 6.85487 12.6681 6.85578L11.5287 6.86264V5.95178H13.243C13.3945 5.95178 13.5399 5.89158 13.647 5.78441C13.7542 5.67725 13.8144 5.53191 13.8144 5.38035C13.8144 5.2288 13.7542 5.08346 13.647 4.97629C13.5399 4.86913 13.3945 4.80893 13.243 4.80893H10.9572V4.81007ZM2.95724 0.570068C2.19948 0.570068 1.47275 0.871088 0.936935 1.40691C0.401117 1.94272 0.100098 2.66945 0.100098 3.42721V11.4272C0.100098 12.185 0.401117 12.9117 0.936935 13.4475C1.47275 13.9833 2.19948 14.2844 2.95724 14.2844H13.243C14.0007 14.2844 14.7274 13.9833 15.2633 13.4475C15.7991 12.9117 16.1001 12.185 16.1001 11.4272V3.42721C16.1001 2.66945 15.7991 1.94272 15.2633 1.40691C14.7274 0.871088 14.0007 0.570068 13.243 0.570068H2.95724ZM1.24295 3.42721C1.24295 2.97255 1.42357 2.53652 1.74506 2.21503C2.06655 1.89354 2.50258 1.71293 2.95724 1.71293H13.243C13.6976 1.71293 14.1336 1.89354 14.4551 2.21503C14.7766 2.53652 14.9572 2.97255 14.9572 3.42721V11.4272C14.9572 11.8819 14.7766 12.3179 14.4551 12.6394C14.1336 12.9609 13.6976 13.1415 13.243 13.1415H2.95724C2.50258 13.1415 2.06655 12.9609 1.74506 12.6394C1.42357 12.3179 1.24295 11.8819 1.24295 11.4272V3.42721Z" fill="#828282"/>
</svg>
