<svg width="16" height="17" viewBox="0 0 16 17" fill="none" xmlns="http://www.w3.org/2000/svg">
<path d="M11.7985 0.483181C12.5084 0.373798 13.2327 0.550908 13.812 0.975549C14.3913 1.40019 14.7782 2.03758 14.8876 2.7475L15.7606 8.41314C15.8361 8.90437 15.7134 9.40547 15.4196 9.80631L11.5035 15.15C11.3579 15.3486 11.1747 15.5166 10.9642 15.6443C10.7537 15.7721 10.5201 15.8572 10.2768 15.8946L4.61112 16.7676C3.90121 16.877 3.17691 16.6999 2.59758 16.2752C2.01825 15.8506 1.63133 15.2132 1.52195 14.5033L0.0625768 5.03173C-0.0468065 4.32181 0.130304 3.59752 0.554945 3.01818C0.979587 2.43885 1.61698 2.05193 2.32689 1.94255L11.7985 0.483181ZM11.9888 1.7186L2.51725 3.17797C2.13498 3.23687 1.79177 3.44521 1.56312 3.75716C1.33447 4.06911 1.2391 4.45911 1.298 4.84137L2.75737 14.3129C2.87995 15.1085 3.62516 15.6548 4.42077 15.5322L9.98017 14.6756L9.59134 12.152C9.41185 12.2079 9.22964 12.2545 9.04542 12.2918L8.77712 12.3399C7.69578 12.5157 6.58653 12.3507 5.60319 11.8677C5.45405 11.7952 5.33981 11.6664 5.28562 11.5097C5.25879 11.4321 5.2475 11.35 5.25241 11.268C5.25732 11.186 5.27832 11.1058 5.31422 11.032C5.35012 10.9581 5.40022 10.8921 5.46165 10.8376C5.52308 10.7831 5.59464 10.7412 5.67225 10.7144C5.82898 10.6602 6.00082 10.6705 6.14996 10.743C6.91921 11.1169 7.72691 11.237 8.58676 11.1045C8.96727 11.0458 9.32325 10.9429 9.65553 10.7956C9.79518 10.3371 10.0541 9.92389 10.4059 9.59828C10.7576 9.27268 11.1896 9.04636 11.6575 8.94247L11.8321 8.90968L14.5088 8.49725L13.6522 2.93785C13.5933 2.55559 13.385 2.21238 13.073 1.98372C12.7611 1.75507 12.3711 1.6597 11.9888 1.7186ZM13.8253 9.86731L12.0232 10.145C11.6614 10.2008 11.3338 10.3906 11.1054 10.6768C10.8771 10.963 10.7648 11.3246 10.7908 11.6898L10.804 11.8084L11.0809 13.6114L13.8253 9.86731ZM5.19474 5.50656C5.33174 5.48147 5.47237 5.4841 5.60833 5.51431C5.74429 5.54451 5.87281 5.60167 5.98629 5.68241C6.09977 5.76315 6.19591 5.86583 6.26902 5.98437C6.34213 6.10291 6.39073 6.23491 6.41194 6.37255C6.43315 6.5102 6.42654 6.65071 6.3925 6.78576C6.35846 6.92081 6.29769 7.04766 6.21377 7.15881C6.12986 7.26997 6.0245 7.36316 5.90394 7.43289C5.78338 7.50262 5.65006 7.54747 5.51187 7.56477C5.23882 7.60684 4.96025 7.53872 4.73743 7.3754C4.51461 7.21208 4.36579 6.96693 4.32372 6.69388C4.28165 6.42084 4.34977 6.14226 4.5131 5.91944C4.67642 5.69662 4.92157 5.54781 5.19461 5.50574L5.19474 5.50656ZM10.1364 4.74515C10.2734 4.72006 10.4141 4.72269 10.55 4.7529C10.686 4.7831 10.8145 4.84026 10.928 4.921C11.0415 5.00174 11.1376 5.10442 11.2107 5.22296C11.2838 5.3415 11.3324 5.4735 11.3536 5.61114C11.3748 5.74879 11.3682 5.8893 11.3342 6.02435C11.3001 6.1594 11.2394 6.28625 11.1555 6.3974C11.0715 6.50856 10.9662 6.60175 10.8456 6.67148C10.7251 6.74121 10.5917 6.78606 10.4536 6.80336C10.1845 6.83706 9.91289 6.76451 9.69647 6.60112C9.48006 6.43774 9.33588 6.1964 9.29459 5.9284C9.2533 5.6604 9.31814 5.38685 9.47534 5.1659C9.63254 4.94495 9.8697 4.79401 10.1364 4.74515V4.74515Z" fill="#828282"/>
</svg>
