<svg width="20" height="22" viewBox="0 0 20 22" fill="none" xmlns="http://www.w3.org/2000/svg">
<path fill-rule="evenodd" clip-rule="evenodd" d="M10 20C15.5228 20 20 15.5228 20 10C20 4.47715 15.5228 0 10 0C4.47715 0 0 4.47715 0 10C0 13.2716 1.57111 16.1763 4 18.0007V20.5C4 20.8333 4.2 21.4 5 21C5.70771 20.6461 6.72844 20.0054 7.30069 19.6314C8.15936 19.8716 9.06468 20 10 20Z" fill="#8C939D"/>
<path d="M11.7127 9.62643C10.8793 8.95976 9.01265 7.52643 8.21265 7.12643C7.41266 6.72643 5.21266 10.6264 4.21265 12.6264C3.54701 13.8871 4.60197 13.485 5.21265 13.1264L7.21265 11.6264C7.71265 11.1264 8.71265 10.9597 9.21265 11.1264C10.7127 12.1264 12.2127 13.1264 12.7127 13.1264C13.2127 13.1264 15.7127 8.62643 16.2127 7.62643C16.6127 6.82643 16.046 6.95976 15.7127 7.12643L12.7127 9.62643C12.7127 9.62643 12.2126 10.1264 11.7127 9.62643Z" fill="white"/>
</svg>
