<svg width="20" height="15" viewBox="0 0 20 15" fill="none" xmlns="http://www.w3.org/2000/svg">
<path d="M20 12.7273V1.81818C20 0.812121 19.2122 0 18.2363 0H1.76367C0.787772 0 0 0.812121 0 1.81818V12.7273C0 13.7333 0.787772 14.5455 1.76367 14.5455H18.2363C19.2122 14.5455 20 13.7333 20 12.7273ZM18.4597 1.68485C18.8477 2.08485 18.6361 2.49697 18.4245 2.70303L13.6508 7.21212L18.2363 12.1333C18.3774 12.303 18.4715 12.5697 18.3069 12.7515C18.154 12.9455 17.8013 12.9333 17.6484 12.8121L12.5103 8.29091L9.99412 10.6545L7.48971 8.29091L2.35156 12.8121C2.19871 12.9333 1.84597 12.9455 1.69312 12.7515C1.52851 12.5697 1.62258 12.303 1.76367 12.1333L6.34921 7.21212L1.57554 2.70303C1.3639 2.49697 1.15226 2.08485 1.54027 1.68485C1.92828 1.28485 2.32804 1.47879 2.65726 1.7697L9.99412 7.87879L17.3427 1.7697C17.672 1.47879 18.0717 1.28485 18.4597 1.68485V1.68485Z" fill="#8C939D"/>
</svg>
