<svg width="24" height="25" viewBox="0 0 24 25" fill="none" xmlns="http://www.w3.org/2000/svg">
<path d="M11.9622 25C12.7771 25.001 13.572 24.7481 14.2366 24.2765C14.9011 23.8049 15.4021 23.138 15.6701 22.3684H8.25433C8.52231 23.138 9.02338 23.8049 9.6879 24.2765C10.3524 24.7481 11.1474 25.001 11.9622 25ZM21.1728 15.2447V9.21052C21.1728 4.97762 18.2978 1.41183 14.403 0.339457C14.403 0.339457 13.0754 0 11.9622 0C10.8491 0 9.52144 0.339457 9.52144 0.339457C5.6267 1.41314 2.7517 4.97762 2.7517 9.21052V15.2447L0.505645 17.4908C0.383221 17.6128 0.286131 17.7578 0.219966 17.9174C0.153802 18.0771 0.119868 18.2482 0.120119 18.421V19.7368C0.120119 20.0858 0.258746 20.4205 0.505504 20.6672C0.752263 20.914 1.08694 21.0526 1.43591 21.0526H22.4886C22.8375 21.0526 23.1722 20.914 23.419 20.6672C23.6657 20.4205 23.8043 20.0858 23.8043 19.7368V18.421C23.8046 18.2482 23.7707 18.0771 23.7045 17.9174C23.6383 17.7578 23.5412 17.6128 23.4188 17.4908L21.1728 15.2447Z" fill="black"/>
</svg>
