<svg width="25" height="25" viewBox="0 0 25 25" fill="none" xmlns="http://www.w3.org/2000/svg">
<path d="M16.2993 0.596683C9.72799 -1.50678 2.68384 2.12944 0.596683 8.70072C-1.50678 15.272 2.12944 22.3162 8.70072 24.4033C15.272 26.5068 22.3162 22.8706 24.4033 16.2993C26.5068 9.728 22.8706 2.68384 16.2993 0.596683Z" fill="#2F80ED"/>
<path d="M8.24422 11.0649H5.70049C5.47536 11.0649 5.29285 11.2475 5.29285 11.4726V18.7613C5.29285 18.9864 5.47536 19.169 5.70049 19.169H8.24422C8.46936 19.169 8.65187 18.9864 8.65187 18.7613V11.4726C8.65187 11.2475 8.46936 11.0649 8.24422 11.0649Z" fill="white"/>
<path d="M19.2673 13.6413C19.2673 13.1848 18.9901 12.7934 18.5987 12.6141C19.1531 12.5488 19.5771 12.076 19.5771 11.5053C19.5771 10.8857 19.0716 10.3802 18.452 10.3802H14.3918C14.3918 10.3802 15.093 9.17356 15.3539 7.49406C15.6148 5.81455 15.1745 4.47747 14.1146 4.33072C14.1146 4.33072 12.6145 4.23288 12.9243 6.72768C12.9243 6.72768 11.1143 9.27139 9.50004 11.3585V17.1797C9.50004 17.1797 9.45112 18.3375 10.6414 18.4027C10.6741 18.4027 10.7067 18.4027 10.7393 18.4027H17.9954C18.5009 18.4027 18.9085 17.995 18.9085 17.4896C18.9085 16.9841 18.5009 16.5764 17.9954 16.5764H18.1585C18.664 16.5764 19.0716 16.1688 19.0716 15.6633C19.0716 15.1578 18.664 14.7502 18.1585 14.7502H18.1259C18.7455 14.7502 19.251 14.2447 19.251 13.6251L19.2673 13.6413Z" fill="white"/>
</svg>
