<svg width="18" height="18" viewBox="0 0 18 18" fill="none" xmlns="http://www.w3.org/2000/svg">
<path d="M5 6.5C6.28 9.01556 7.98444 10.72 10.5 12.0089L12.5311 10.8267C12.7711 10.5867 13.1267 10.5067 13.4378 10.6133C14.4333 10.9422 15.5089 11.12 16.6111 11.12C17.1 11.12 17.5 11.52 17.5 12.0089V15.1111C17.5 15.5 17 17 15.5 17.5C11.3248 18.8917 0 11.8467 0 3.5C0.5 0.888889 1.9 0 2.38889 0H5.5C5.98889 0 6.38889 0.4 6.38889 0.888889C6.5 2 6.67333 3 6.89556 4.06222C6.99333 4.37333 6.92222 4.72 6.67333 4.96889L5 6.5Z" fill="#8C939D"/>
</svg>
