<svg width="25" height="25" viewBox="0 0 25 25" fill="none" xmlns="http://www.w3.org/2000/svg">
<path fill-rule="evenodd" clip-rule="evenodd" d="M12.3876 23.6546C18.9196 23.6546 24.2149 18.3593 24.2149 11.8273C24.2149 5.29525 18.9196 0 12.3876 0C5.85556 0 0.560303 5.29525 0.560303 11.8273C0.560303 15.6968 2.41852 19.1322 5.29128 21.29V24.2459C5.29128 24.6402 5.52782 25.3104 6.474 24.8373C7.31103 24.4188 8.51829 23.6609 9.1951 23.2187C10.2106 23.5027 11.2814 23.6546 12.3876 23.6546Z" fill="black"/>
<path d="M14.4134 11.3855C13.4277 10.597 11.22 8.9018 10.2738 8.42871C9.32763 7.95562 6.72563 12.5682 5.54289 14.9337C4.75561 16.4248 6.00335 15.9492 6.72562 15.525L9.09108 13.751C9.68243 13.1596 10.8652 12.9625 11.4565 13.1596C13.2306 14.3423 15.0047 15.525 15.5961 15.525C16.1874 15.525 19.1443 10.2028 19.7356 9.02007C20.2087 8.07389 19.5385 8.23159 19.1443 8.42871L15.5961 11.3855C15.5961 11.3855 15.0047 11.9769 14.4134 11.3855Z" fill="white"/>
</svg>
