<svg width="24" height="25" viewBox="0 0 24 25" fill="none" xmlns="http://www.w3.org/2000/svg">
<path fill-rule="evenodd" clip-rule="evenodd" d="M11.8273 23.6546C18.3593 23.6546 23.6546 18.3593 23.6546 11.8273C23.6546 5.29525 18.3593 0 11.8273 0C5.29525 0 0 5.29525 0 11.8273C0 15.6966 1.85806 19.1319 4.7306 21.2897V24.2459C4.7306 24.6402 4.96714 25.3104 5.91333 24.8373C6.7504 24.4188 7.95774 23.6608 8.63453 23.2186C9.65016 23.5027 10.721 23.6546 11.8273 23.6546Z" fill="white"/>
<path d="M13.8528 11.3855C12.8672 10.597 10.6594 8.9018 9.71326 8.42871C8.76708 7.95562 6.16508 12.5682 4.98235 14.9337C4.19507 16.4248 5.4428 15.9492 6.16507 15.525L8.53053 13.751C9.12189 13.1596 10.3046 12.9625 10.896 13.1596C12.6701 14.3423 14.4442 15.525 15.0355 15.525C15.6269 15.525 18.5837 10.2028 19.1751 9.02007C19.6482 8.07389 18.978 8.23159 18.5837 8.42871L15.0355 11.3855C15.0355 11.3855 14.4442 11.9769 13.8528 11.3855Z" fill="#2F80ED"/>
</svg>
